<svg width="39" height="39" viewBox="0 0 39 39" fill="none" xmlns="http://www.w3.org/2000/svg">
<g clip-path="url(#clip0_9_511)">
<path d="M0.537655 18.4892C0.537655 18.4892 1.4184 18.3446 1.78078 18.7232C2.14315 19.1018 1.90591 19.8867 1.42328 19.8997C0.94228 19.9159 0.49703 20.0021 0.18178 19.6657C0.0999853 19.5735 0.0431731 19.4619 0.016761 19.3415C-0.00965109 19.2211 -0.00478242 19.0959 0.0309027 18.978C0.0665879 18.86 0.1319 18.7531 0.22061 18.6676C0.30932 18.582 0.418472 18.5206 0.537655 18.4892ZM10.0943 23.8387C10.0098 23.8549 9.92041 23.8111 9.82778 23.7444C9.19728 22.8637 8.96816 19.8558 8.67891 19.6771C8.37828 19.4918 7.29116 21.3443 5.12666 21.1444C4.22153 21.0616 3.30016 20.4749 2.75903 20.0687C2.80778 19.3862 2.81753 17.7888 4.16466 18.3088C4.98366 18.6241 6.38603 19.4886 7.61778 17.9351C8.97953 16.2158 9.73028 16.7163 10.1804 17.0901C10.6305 17.4638 10.3299 19.4057 11.0027 18.8613C11.6738 18.3186 14.3859 14.9451 14.3859 14.9451C14.3859 14.9451 16.4854 12.8277 16.8072 15.0539C17.1273 17.2802 18.4972 19.7469 18.8595 19.6771C19.2219 19.6072 23.4453 11.0239 24.0514 10.4698C24.6559 9.91568 26.692 9.9888 26.5945 11.4091C26.497 12.8293 26.2907 21.6596 26.2907 21.6596C26.2907 21.6596 26.0518 24.1474 26.4418 22.8182C26.6027 22.2657 26.7765 21.7701 26.9927 21.1883C28.2421 17.2021 29.4761 13.2111 30.6944 9.2153L31.2095 7.44405C31.2535 7.26289 31.3061 7.08393 31.3672 6.9078C31.4419 6.65755 31.4907 6.49343 31.5069 6.44955C31.5459 6.33905 31.6564 6.25455 31.8124 6.19443C31.97 6.0953 32.1374 6.09043 32.3275 6.08555C32.8183 6.04168 33.4488 6.10505 34.0175 6.26755C34.1833 6.26755 34.362 6.32768 34.5327 6.44955C34.7033 6.57143 34.5424 6.44955 34.557 6.4658C34.5619 6.4658 34.5652 6.4658 34.57 6.48205C34.6299 6.52604 34.6835 6.57797 34.7293 6.63643C34.7293 6.63643 34.7325 6.63643 34.7358 6.65268C34.7658 6.69046 34.7935 6.73008 34.8187 6.7713C35.1372 7.23605 35.3305 8.09405 35.1355 9.61505C34.648 13.4094 34.2727 21.2176 34.2727 21.2176C34.2727 21.2176 34.1963 21.5897 34.9795 19.9452C35.0072 19.8883 35.0413 19.8379 35.0738 19.7859C35.1297 19.7475 35.1795 19.7009 35.2217 19.6478C35.7059 19.0726 37.0043 18.7329 37.9045 18.7411C38.2848 18.7866 38.6033 18.8824 38.7934 19.0011C39.1477 19.5422 38.9397 21.5393 38.9397 21.5393C38.1889 21.6092 36.7605 22.0122 36.2535 22.0869C35.7482 22.1617 34.9779 25.4507 33.9087 25.1143C32.8394 24.7779 30.4555 23.2829 30.4555 23.0782C30.5282 22.0645 30.6105 21.0515 30.7025 20.0394C30.7022 20.0319 30.7022 20.0243 30.7025 20.0167C30.7383 19.5731 30.7074 19.3797 30.5027 19.8217C30.3255 20.2036 29.5585 22.6427 28.7022 25.2996C28.6112 25.5319 26.9943 30.4281 26.7814 31.0244C26.5279 31.7183 26.315 32.2481 26.1688 32.5211C25.9445 32.8249 25.6423 33.0151 25.2214 32.8883C24.1717 32.5698 22.8408 31.1171 22.8278 30.7596C22.8034 28.7267 22.9253 17.8018 22.4345 18.7118C21.9292 19.6462 17.9983 26.1234 17.9983 26.1234C17.9333 26.1397 17.8845 26.1397 17.826 26.1397C17.5465 26.1088 17.1159 26.0194 16.9973 25.7529C16.9908 25.7367 16.981 25.7237 16.9762 25.7074L16.9534 25.6424C16.8998 25.4637 16.8787 25.2687 16.8315 25.1111C16.5948 24.3374 16.344 23.5681 16.0792 22.8036C15.6258 21.3264 15.1594 19.8184 15.083 19.6511C14.9335 19.3261 14.7142 19.4626 14.5192 19.6511C13.6417 20.3953 11.7778 23.6811 10.0943 23.8598" fill="#FFD049"/>
</g>
<defs>
<clipPath id="clip0_9_511">
<rect width="39" height="39" fill="white"/>
</clipPath>
</defs>
</svg>
